<svg version="1.1" baseProfile="basic" width="100%" height="100%" x="0px" y="0px" viewBox="0 0 478.7 442.6">
	<path id="duck" fill-rule="evenodd" clip-rule="evenodd" d="M93.5,156c0,0,20.5,8.2,19.7,28.7S47,214.1,47,295
		s90.4,144.4,191,144.4s237.2-58.9,237.2-177.2c0-198.5-15-61-171.7-61c-52,0-61.3-17.8-53.1-27.9C289.3,125.6,303.5,0,176.7,0
		C94,1.7,74,69,74.1,85.3c0.1,11.5-11.9,15.3-72.6,13C-13.8,154.2,93.5,156,93.5,156z M130.9,53c11,0,19.9,8.9,19.9,19.9
		s-8.9,19.9-19.9,19.9c-11,0-19.9-8.9-19.9-19.9S120,53,130.9,53z"/>
</svg>