<svg xmlns="http://www.w3.org/2000/svg" width="100%" height="100%" viewBox="0 0 200 200.3">
    <defs>
        <style>.cls-1{fill:none;}.cls-2{clip-path:url(#clip-path);}.cls-3{fill:#fff;}</style>
        <clipPath id="clip-path" transform="translate(-0.3 0.7)">
            <rect class="cls-1" x="0.3" y="-0.6" width="200" height="200">
            </rect>
        </clipPath>
    </defs>
    <g class="cls-2">
        <path
            d="M89.5-.6A89.28,89.28,0,0,0,.3,88.6v21.8a89.28,89.28,0,0,0,89.2,89.2h21.6a89.28,89.28,0,0,0,89.2-89.2V88.5A89.28,89.28,0,0,0,111.1-.7H89.5Z"
            transform="translate(-0.3 0.7)">
        </path>
    </g>
    <g class="cls-2">
        <path class="cls-3"
            d="M112.9,74.4c0,4.6-5.7,8.4-12.5,8.4-7,0-12.5-3.7-12.5-8.4S93.6,66,100.4,66c7-.1,12.5,3.8,12.5,8.4M87.5,124.3c0-4.6,5.7-8.4,12.5-8.4s12.5,3.7,12.5,8.4-5.7,8.4-12.5,8.4-12.5-3.8-12.5-8.4m62.8-51.9c0-12.8-14.9-23-33.4-23a17.2,17.2,0,0,0-3.2.2v-.2H50.4v99.8h63.4V149c1.1,0,2.1.2,3.2.2,18.4,0,33.4-10.4,33.4-23s-14.9-23-33.4-23a17.2,17.2,0,0,0-3.2.2v-.2H100V95.6h13.8v-.2c1.1,0,2.1.2,3.2.2,18.4-.1,33.3-10.5,33.3-23.2"
            transform="translate(-0.3 0.7)">
        </path>
    </g>
</svg>